<?xml version="1.0" encoding="UTF-8" standalone="no"?>
<!DOCTYPE svg PUBLIC "-//W3C//DTD SVG 1.1//EN"
 "http://www.w3.org/Graphics/SVG/1.1/DTD/svg11.dtd">
<!-- Generated by graphviz version 2.42.3 (20191010.1750)
 -->
<!-- Title: bloom1 Pages: 1 -->
<svg width="815pt" height="540pt"
 viewBox="0.00 0.00 815.38 540.00" xmlns="http://www.w3.org/2000/svg" xmlns:xlink="http://www.w3.org/1999/xlink">
<g id="graph0" class="graph" transform="scale(0.46 0.46) rotate(0) translate(4 247)">
<title>bloom1</title>
<polygon fill="white" stroke="transparent" points="-4,4 -4,-247 375,-247 375,4 -4,4"/>
<!-- Value -->
<g id="node1" class="node">
<title>Value</title>
<polygon fill="#f5f5f5" stroke="#ffffff" points="106.5,-206.5 106.5,-242.5 308.5,-242.5 308.5,-206.5 106.5,-206.5"/>
<text text-anchor="middle" x="207.5" y="-220.8" font-family="Jura" font-size="14.00">&quot;Bloom filters are awesome!&quot;</text>
</g>
<!-- BloomHash -->
<g id="node2" class="node">
<title>BloomHash</title>
<polygon fill="#ffffff" stroke="transparent" points="138,-107 138,-166 277,-166 277,-107 138,-107"/>
<polygon fill="#f5f5f5" stroke="transparent" points="141.5,-137.5 141.5,-162.5 274.5,-162.5 274.5,-137.5 141.5,-137.5"/>
<text text-anchor="start" x="168.5" y="-146.3" font-family="Jura" font-size="14.00">bloom&#45;hash</text>
<polygon fill="#f5f5f5" stroke="transparent" points="141.5,-109.5 141.5,-134.5 173.5,-134.5 173.5,-109.5 141.5,-109.5"/>
<text text-anchor="start" x="146.5" y="-118.3" font-family="Jura" font-size="14.00">fn3</text>
<polygon fill="#f5f5f5" stroke="transparent" points="176.5,-109.5 176.5,-134.5 208.5,-134.5 208.5,-109.5 176.5,-109.5"/>
<text text-anchor="start" x="181.5" y="-118.3" font-family="Jura" font-size="14.00">fn2</text>
<polygon fill="#f5f5f5" stroke="transparent" points="211.5,-109.5 211.5,-134.5 240.5,-134.5 240.5,-109.5 211.5,-109.5"/>
<text text-anchor="start" x="216.5" y="-118.3" font-family="Jura" font-size="14.00">fn1</text>
<polygon fill="#f5f5f5" stroke="transparent" points="243.5,-109.5 243.5,-134.5 274.5,-134.5 274.5,-109.5 243.5,-109.5"/>
<text text-anchor="start" x="248.5" y="-118.3" font-family="Jura" font-size="14.00">fn4</text>
</g>
<!-- Value&#45;&gt;BloomHash -->
<g id="edge5" class="edge">
<title>Value&#45;&gt;BloomHash</title>
<path fill="none" stroke="black" d="M207.5,-206.1C207.5,-198.61 207.5,-189.49 207.5,-180.38"/>
<polygon fill="black" stroke="black" points="211,-180.19 207.5,-170.19 204,-180.19 211,-180.19"/>
</g>
<!-- Filter -->
<g id="node3" class="node">
<title>Filter</title>
<polygon fill="#ffffff" stroke="transparent" points="8,-4 8,-63 363,-63 363,-4 8,-4"/>
<polygon fill="#f5f5f5" stroke="transparent" points="11.5,-34.5 11.5,-59.5 31.5,-59.5 31.5,-34.5 11.5,-34.5"/>
<text text-anchor="start" x="16.5" y="-43.3" font-family="Jura Bold" font-size="14.00">0</text>
<polygon fill="#e53935" stroke="transparent" points="34.5,-34.5 34.5,-59.5 50.5,-59.5 50.5,-34.5 34.5,-34.5"/>
<text text-anchor="start" x="39.5" y="-43.3" font-family="Jura Bold" font-size="14.00" fill="#ffffff">1</text>
<polygon fill="#f5f5f5" stroke="transparent" points="53.5,-34.5 53.5,-59.5 73.5,-59.5 73.5,-34.5 53.5,-34.5"/>
<text text-anchor="start" x="58.5" y="-43.3" font-family="Jura Bold" font-size="14.00">0</text>
<polygon fill="#f5f5f5" stroke="transparent" points="76.5,-34.5 76.5,-59.5 96.5,-59.5 96.5,-34.5 76.5,-34.5"/>
<text text-anchor="start" x="81.5" y="-43.3" font-family="Jura Bold" font-size="14.00">0</text>
<polygon fill="#f5f5f5" stroke="transparent" points="99.5,-34.5 99.5,-59.5 119.5,-59.5 119.5,-34.5 99.5,-34.5"/>
<text text-anchor="start" x="104.5" y="-43.3" font-family="Jura Bold" font-size="14.00">0</text>
<polygon fill="#f5f5f5" stroke="transparent" points="122.5,-34.5 122.5,-59.5 142.5,-59.5 142.5,-34.5 122.5,-34.5"/>
<text text-anchor="start" x="127.5" y="-43.3" font-family="Jura Bold" font-size="14.00">0</text>
<polygon fill="#f5f5f5" stroke="transparent" points="145.5,-34.5 145.5,-59.5 165.5,-59.5 165.5,-34.5 145.5,-34.5"/>
<text text-anchor="start" x="150.5" y="-43.3" font-family="Jura Bold" font-size="14.00">0</text>
<polygon fill="#e53935" stroke="transparent" points="168.5,-34.5 168.5,-59.5 184.5,-59.5 184.5,-34.5 168.5,-34.5"/>
<text text-anchor="start" x="173.5" y="-43.3" font-family="Jura Bold" font-size="14.00" fill="#ffffff">1</text>
<polygon fill="#f5f5f5" stroke="transparent" points="187.5,-34.5 187.5,-59.5 207.5,-59.5 207.5,-34.5 187.5,-34.5"/>
<text text-anchor="start" x="192.5" y="-43.3" font-family="Jura Bold" font-size="14.00">0</text>
<polygon fill="#f5f5f5" stroke="transparent" points="210.5,-34.5 210.5,-59.5 230.5,-59.5 230.5,-34.5 210.5,-34.5"/>
<text text-anchor="start" x="215.5" y="-43.3" font-family="Jura Bold" font-size="14.00">0</text>
<polygon fill="#e53935" stroke="transparent" points="233.5,-34.5 233.5,-59.5 249.5,-59.5 249.5,-34.5 233.5,-34.5"/>
<text text-anchor="start" x="238.5" y="-43.3" font-family="Jura Bold" font-size="14.00" fill="#ffffff">1</text>
<polygon fill="#f5f5f5" stroke="transparent" points="252.5,-34.5 252.5,-59.5 272.5,-59.5 272.5,-34.5 252.5,-34.5"/>
<text text-anchor="start" x="257.5" y="-43.3" font-family="Jura Bold" font-size="14.00">0</text>
<polygon fill="#e53935" stroke="transparent" points="275.5,-34.5 275.5,-59.5 291.5,-59.5 291.5,-34.5 275.5,-34.5"/>
<text text-anchor="start" x="280.5" y="-43.3" font-family="Jura Bold" font-size="14.00" fill="#ffffff">1</text>
<polygon fill="#f5f5f5" stroke="transparent" points="294.5,-34.5 294.5,-59.5 314.5,-59.5 314.5,-34.5 294.5,-34.5"/>
<text text-anchor="start" x="299.5" y="-43.3" font-family="Jura Bold" font-size="14.00">0</text>
<polygon fill="#f5f5f5" stroke="transparent" points="317.5,-34.5 317.5,-59.5 337.5,-59.5 337.5,-34.5 317.5,-34.5"/>
<text text-anchor="start" x="322.5" y="-43.3" font-family="Jura Bold" font-size="14.00">0</text>
<polygon fill="#f5f5f5" stroke="transparent" points="340.5,-34.5 340.5,-59.5 360.5,-59.5 360.5,-34.5 340.5,-34.5"/>
<text text-anchor="start" x="345.5" y="-43.3" font-family="Jura Bold" font-size="14.00">0</text>
<polygon fill="#f5f5f5" stroke="transparent" points="11.5,-6.5 11.5,-31.5 360.5,-31.5 360.5,-6.5 11.5,-6.5"/>
<text text-anchor="start" x="142" y="-15.3" font-family="Jura Bold" font-size="14.00">bloom&#45;hash</text>
</g>
<!-- BloomHash&#45;&gt;Filter -->
<g id="edge1" class="edge">
<title>BloomHash:fn1&#45;&gt;Filter:i7</title>
<path fill="none" stroke="black" d="M157.5,-108.5C157.5,-108.5 167.1,-84.24 172.66,-70.21"/>
<polygon fill="black" stroke="black" points="176.07,-71.09 176.5,-60.5 169.57,-68.51 176.07,-71.09"/>
</g>
<!-- BloomHash&#45;&gt;Filter -->
<g id="edge2" class="edge">
<title>BloomHash:fn2&#45;&gt;Filter:i1</title>
<path fill="none" stroke="black" d="M192.5,-108.5C192.5,-108.5 85.71,-74.33 52.34,-63.65"/>
<polygon fill="black" stroke="black" points="53.09,-60.21 42.5,-60.5 50.96,-66.88 53.09,-60.21"/>
</g>
<!-- BloomHash&#45;&gt;Filter -->
<g id="edge3" class="edge">
<title>BloomHash:fn3&#45;&gt;Filter:i12</title>
<path fill="none" stroke="black" d="M226.5,-108.5C226.5,-108.5 259.91,-80.36 275.57,-67.17"/>
<polygon fill="black" stroke="black" points="278.11,-69.62 283.5,-60.5 273.6,-64.26 278.11,-69.62"/>
</g>
<!-- BloomHash&#45;&gt;Filter -->
<g id="edge4" class="edge">
<title>BloomHash:fn4&#45;&gt;Filter:i10</title>
<path fill="none" stroke="black" d="M259.5,-108.5C259.5,-108.5 250.4,-84.24 245.14,-70.21"/>
<polygon fill="black" stroke="black" points="248.29,-68.63 241.5,-60.5 241.73,-71.09 248.29,-68.63"/>
</g>
</g>
</svg>
